<?xml version="1.0" standalone="no"?>
<!DOCTYPE svg PUBLIC "-//W3C//DTD SVG 1.1//EN" "http://www.w3.org/Graphics/SVG/1.1/DTD/svg11.dtd" >
<!--
2013-9-30: Created.
-->
<svg>
<metadata>
Created by iconfont
</metadata>
<defs>

<font id="iconfont" horiz-adv-x="1024" >
  <font-face
    font-family="iconfont"
    font-weight="500"
    font-stretch="normal"
    units-per-em="1024"
    ascent="896"
    descent="-128"
  />
    <missing-glyph />
    
    <glyph glyph-name="jiacu" unicode="&#58888;" d="M233.078-37.236v793.073h281.659c86.333 0 152.917-16.369 199.696-49.167s70.196-78.177 70.196-136.198c0-42.992-14.563-80.74-43.574-113.13s-65.536-54.759-109.575-67.051v-2.038c55.283-6.815 99.964-27.322 133.926-61.458 34.020-34.137 50.973-76.954 50.973-128.509 0-72.002-25.573-129.325-76.78-171.734-51.205-42.526-121.227-63.789-209.949-63.789h-296.572zM402.075 629.891v-196.083h80.39c38.623 0 68.973 9.204 91.168 27.67s33.263 44.215 33.263 77.302c0 60.759-44.389 91.109-133.169 91.109h-71.652zM402.075 306.289v-217.58h100.372c42.642 0 76.021 9.903 100.14 29.71 24 19.807 36.060 47.302 36.060 82.43 0 33.438-11.942 59.42-35.826 77.827s-57.846 27.67-101.887 27.67h-98.857z"  horiz-adv-x="1024" />

    
    <glyph glyph-name="shanchu" unicode="&#58914;" d="M216.127386 38.815283c0-54.490032 44.134173-98.624205 98.624205-98.624205l394.496819 0c54.490032 0 98.624205 44.134173 98.624205 98.624205L807.872614 630.560512 216.127386 630.560512 216.127386 38.815283zM857.184717 778.496819 684.591847 778.496819l-49.312102 49.312102L388.719232 827.808922l-49.312102-49.312102L166.815283 778.496819l0-98.624205 690.369434 0L857.184717 778.496819z"  horiz-adv-x="1024" />

    
    <glyph glyph-name="ai249" unicode="&#59117;" d="M511.999488 735.851717c-196.335424 0-353.444491-157.099857-353.444491-353.440398 0-196.339517 157.108044-353.439375 353.444491-353.439375 31.467657 0 58.906562 27.554538 58.906562 58.907586 0 15.762993-3.909026 27.554538-15.64429 39.285709-7.945965 11.794615-15.764016 23.590254-15.764016 39.234544 0 31.467657 27.49928 58.906562 58.907586 58.906562l70.694015 0c109.995073 0 196.342587 86.406866 196.342587 196.394776C865.442956 594.509736 708.393241 735.851717 511.999488 735.851717M296.043211 382.411319c-31.460494 0-58.900423 27.554538-58.900423 58.906562 0 31.408306 27.438905 58.903493 58.900423 58.903493 31.416492 0 58.906562-27.495187 58.906562-58.903493C354.950796 409.965857 327.460726 382.411319 296.043211 382.411319M413.857359 539.516292c-31.467657 0-58.906562 27.49928-58.906562 58.907586 0 31.407282 27.438905 58.906562 58.906562 58.906562 31.408306 0 58.907586-27.49928 58.907586-58.906562C472.765968 567.015572 445.266688 539.516292 413.857359 539.516292M610.199946 539.516292c-31.416492 0-58.906562 27.49928-58.906562 58.907586 0 31.407282 27.49007 58.906562 58.906562 58.906562 31.408306 0 58.900423-27.49928 58.900423-58.906562C669.100369 567.015572 641.609275 539.516292 610.199946 539.516292M728.006931 382.411319c-31.407282 0-58.906562 27.554538-58.906562 58.906562 0 31.408306 27.49928 58.903493 58.906562 58.903493 31.416492 0 58.906562-27.495187 58.906562-58.903493C786.914517 409.965857 759.423423 382.411319 728.006931 382.411319"  horiz-adv-x="1024" />

    
    <glyph glyph-name="jiangpai" unicode="&#58890;" d="M512 608c-73.76 0-141.36-26.304-194-70l-78 182c0 8.832 7.168 16 16 16h512c8.832 0 16-7.168 16-16l-78-181.984C653.36 581.696 585.76 608 512 608z m200.992-121.2c5.904-6.464 11.456-13.232 16.72-20.24 0.48-0.656 0.976-1.296 1.456-1.952 4.848-6.592 9.376-13.44 13.632-20.464 0.688-1.152 1.424-2.288 2.096-3.472 3.856-6.56 7.344-13.344 10.64-20.24 0.816-1.712 1.696-3.376 2.464-5.104 2.928-6.48 5.472-13.136 7.904-19.856 0.8-2.24 1.696-4.416 2.448-6.688 2.112-6.416 3.824-13.008 5.472-19.632 0.64-2.64 1.44-5.2 2.016-7.872 1.456-6.704 2.448-13.584 3.376-20.464 0.368-2.624 0.928-5.184 1.2-7.84C783.44 323.456 784 313.792 784 304c0-150.224-121.776-272-272-272S240 153.776 240 304c0 9.792 0.56 19.456 1.584 28.976 0.272 2.656 0.832 5.216 1.2 7.856 0.944 6.88 1.936 13.744 3.376 20.448 0.576 2.672 1.376 5.248 2.032 7.888 1.632 6.608 3.344 13.2 5.456 19.616 0.752 2.272 1.664 4.464 2.464 6.704 2.416 6.72 4.96 13.36 7.888 19.824 0.784 1.744 1.648 3.424 2.48 5.152 3.28 6.88 6.768 13.648 10.608 20.208 0.688 1.168 1.424 2.32 2.128 3.504 4.256 7.008 8.752 13.84 13.6 20.416 0.496 0.672 0.992 1.328 1.488 1.984a280.05 280.05 0 0 0 16.672 20.208c0.24 0.256 0.48 0.512 0.72 0.784 6.208 6.752 12.752 13.232 19.616 19.344C379.376 549.744 442.544 576 512 576c69.44 0 132.608-26.24 180.688-69.072a280.383 280.383 0 0 0 19.632-19.376c0.224-0.256 0.448-0.512 0.672-0.752z"  horiz-adv-x="1024" />

    
    <glyph glyph-name="mofabang" unicode="&#58917;" d="M494.753444 540.53217c-23.534029 28.941576-65.978474 33.325209-94.768063 9.879173-28.845584-23.534029-33.261214-65.890482-9.815178-94.80006l483.295524-558.705209c23.414039-28.837585 65.770492-33.165222 94.736066-9.759183 28.845584 23.478034 33.19722 65.890482 9.759183 94.712068l-483.207532 558.673211z m-63.87465-28.213637a18.342464 18.342464 0 0 0 25.661851-2.727771l39.892659-48.987897c-5.583532-2.399799-11.015077-5.37555-15.910668-9.311221-4.919588-4.023663-8.855258-8.671274-12.366964-13.630858l-39.860662 48.899905c-6.32747 7.927336-5.159568 19.454371 2.583784 25.757842zM407.584745 190.489487a30.717427 30.717427 0 0 0-26.781757 15.63869L274.515889 394.832373 58.917946 414.342739a30.757424 30.757424 0 0 0-25.901831 19.542363 30.765423 30.765423 0 0 0 6.063492 31.893329l146.563725 159.242663-48.075973 211.198313a30.741425 30.741425 0 0 0 42.772418 34.773087l196.855513-90.232443L563.155716 891.662763a30.781422 30.781422 0 0 0 32.453282-0.59995 30.701429 30.701429 0 0 0 13.830841-29.357541l-25.037903-214.997994 163.026347-142.628055c9.07124-7.911337 12.670939-20.366294 9.247225-31.87733s-13.270889-20.006324-25.157893-21.686184l-75.641665-10.7431a30.749425 30.749425 0 0 0-8.647275 60.882901l9.271223 1.303891L531.758345 611.086262a30.709428 30.709428 0 0 0-10.287138 26.685765l19.69435 169.19383-146.347743-87.272691a30.877414 30.877414 0 0 0-28.549609-1.543871l-154.939024 71.018052 37.836831-166.250076a30.757424 30.757424 0 0 0-7.351384-27.645685L126.472288 469.946082l169.67379-15.350714a30.797421 30.797421 0 0 0 23.99799-15.518701l83.632996-148.483564 8.615278 20.206308a30.741425 30.741425 0 1 0 56.547264-24.141979l-33.077229-77.497509a30.677431 30.677431 0 0 0-28.277632-18.670436z"  horiz-adv-x="1024" />

    
    <glyph glyph-name="yunshuguanli" unicode="&#58884;" d="M926.242133 459.912533H486.912a27.477333 27.477333 0 0 1-27.4432-27.374933v-261.700267l24.064 158.72s38.024533 48.128 115.165867 48.128h215.210666c77.141333 0 115.165867-48.128 115.165867-48.128l24.576-161.792v264.772267c0 15.0528-12.322133 27.374933-27.4432 27.374933z m-221.832533-94.208l2.321067-0.034133h2.389333-4.7104z m2.218667-13.755733c-50.688-0.375467-119.261867-0.9216-147.899734-12.8-29.013333-12.049067-42.257067-10.410667-48.264533-40.618667l-27.921067-167.150933v-189.371733h37.512534v-36.113067c0-44.032 62.122667-44.032 62.122666 0V-58.026667h248.832v-36.113066c0-44.032 62.190933-44.032 62.190934 0V-58.026667h37.444266V131.413333l-27.921066 167.185067c-6.075733 30.139733-19.285333 28.535467-48.298667 40.584533-28.603733 11.912533-97.211733 12.424533-147.797333 12.8z m-133.597867-127.8976c2.286933 14.7456 7.338667 24.439467 26.5216 24.439467h214.016c19.114667 0 24.132267-9.693867 26.453333-24.439467l16.930134-87.1424c1.570133-11.639467-1.774933-23.1424-17.885867-23.1424h-265.079467c-16.0768 0-19.456 11.502933-17.885866 23.1424l16.930133 87.1424z m17.408-203.3664a12.629333 12.629333 0 0 0-12.629333-12.5952h-50.961067a12.5952 12.5952 0 0 0-12.629333 12.629333v21.538134a12.629333 12.629333 0 0 0 12.629333 12.629333h50.9952c6.929067 0 12.561067-5.666133 12.561067-12.629333v-21.572267z m308.4288 0a12.629333 12.629333 0 0 0-12.5952-12.5952h-50.9952a12.5952 12.5952 0 0 0-12.629333 12.629333v21.538134a12.629333 12.629333 0 0 0 12.629333 12.629333h50.9952c6.9632 0 12.629333-5.666133 12.629333-12.629333v-21.572267z m-79.496533 490.359467h96.529066V769.501867c0 53.248-41.847467 96.256-93.457066 96.256h-96.529067v-98.304h62.395733c16.9984 0 31.061333-14.301867 31.061334-32.085334v-224.324266zM336.213333 703.419733c25.873067 0 46.7968 21.504 46.7968 47.991467V847.5648c0 26.589867-20.923733 48.128-46.762666 48.128-25.873067 0-46.830933-21.538133-46.830934-48.128v-96.1536c0-26.624 20.957867-47.991467 46.7968-47.991467zM569.924267 865.757867h-155.8528v-98.304h155.8528V865.757867z m77.994666-162.338134c25.873067 0 46.7968 21.504 46.7968 47.991467V847.5648c0 26.589867-20.923733 48.128-46.762666 48.128-25.9072 0-46.830933-21.538133-46.830934-48.128v-96.1536c0-26.624 20.923733-47.991467 46.7968-47.991467zM164.795733 735.368533c0 17.783467 13.892267 32.085333 31.197867 32.085334h62.3616V865.757867H161.860267C110.250667 865.757867 68.369067 788.5824 68.369067 735.368533v-705.2288c0-53.077333 41.8816-130.286933 93.4912-130.286933h221.184v98.304h-187.050667c-17.3056-0.136533-31.197867 14.301867-31.197867 31.9488V735.368533z m124.6208-190.190933h405.162667c17.169067 0 31.197867 21.879467 31.197867 49.152 0 27.0336-13.892267 49.152-31.197867 49.152H289.450667c-17.134933 0-31.197867-21.879467-31.197867-49.152 0-27.272533 14.0288-49.152 31.197867-49.152z m93.5936-160.324267H289.553067c-17.169067 0-31.197867-21.879467-31.197867-49.152 0-27.0336 13.892267-49.152 31.197867-49.152h93.457066c17.169067 0 31.197867 21.879467 31.197867 49.152-0.136533 27.2384-14.0288 49.152-31.197867 49.152z m194.56-342.357333c0 1.7408 0 0.6144 0 0z"  horiz-adv-x="1024" />

    
    <glyph glyph-name="dingwei" unicode="&#58927;" d="M157.538462-128v78.738947h708.650519v-78.738947H157.538462z m354.403998 117.754095c-3.858208 0-353.813456 355.78193-353.813456 551.60569 0 195.86313 158.42276 354.600846 353.813456 354.600846 195.430065 0 353.852826-158.737716 353.852826-354.600846 0-195.82376-351.175702-551.60569-353.852826-551.60569zM511.863721 663.090196c-76.101192 0-137.793156-61.140792-137.793156-136.572703s61.691965-136.572703 137.793156-136.572703 137.793156 61.140792 137.793157 136.572703S587.964913 663.090196 511.863721 663.090196z"  horiz-adv-x="1024" />

    
    <glyph glyph-name="zihao" unicode="&#59167;" d="M711.328 160.032l-33.792-92.8a32 32 0 0 0-60.16 21.888l130.368 358.08a31.968 31.968 0 0 0 42.016 21.888c10.208-3.712 17.376-12.096 19.968-21.856l130.336-358.08a32 32 0 0 0-60.16-21.92l-33.76 92.8H711.36z m23.264 64h88.256l-44.128 121.28L734.592 224zM234.752 320h202.496L336 598.144 234.752 320z m-23.296-64L144.64 72.352a32 32 0 0 0-60.128 21.888L303.36 695.68a32 32 0 0 0 32.64 20.96 32 32 0 0 0 32.64-20.96l218.88-601.408a32 32 0 0 0-60.16-21.888L460.576 256H211.456z"  horiz-adv-x="1024" />

    
    <glyph glyph-name="fuhao-ziti" unicode="&#59168;" d="M352 128h32.32c17.472 0 31.68-14.208 31.68-32a32 32 0 0 0-31.68-32H255.68A31.776 31.776 0 0 0 224 96a32 32 0 0 0 31.68 32H288V640H128v-31.68a32 32 0 1 0-64 0V671.68a32 32 0 0 0 9.44 22.912A31.488 31.488 0 0 0 96 704h447.936A31.84 31.84 0 0 0 576 672v-63.68a32 32 0 1 0-64 0V640h-160v-512z m448 0h32.32c17.472 0 31.68-14.208 31.68-32a32 32 0 0 0-31.68-32h-128.64a31.776 31.776 0 0 0-31.68 32 32 32 0 0 0 31.68 32H736v256h-96v-31.68a32 32 0 1 0-64 0v63.36a32 32 0 0 0 9.44 22.912A31.488 31.488 0 0 0 608 448h319.936A31.84 31.84 0 0 0 960 416v-63.68a32 32 0 1 0-64 0V384h-96v-256z"  horiz-adv-x="1024" />

    
    <glyph glyph-name="jiankong" unicode="&#58891;" d="M1149.262372 192.312805a147.143695 147.143695 0 0 0-147.143695-147.143695H608.734512v-105.102639h234.228739a34.033236 34.033236 0 0 0 0-68.066471H306.439302a34.033236 34.033236 0 0 0 0 68.066471H540.668041V45.16911H147.283877A147.143695 147.143695 0 0 0 0.140182 192.312805V227.347019a33.032258 33.032258 0 0 0 0 6.005865V748.856305A147.143695 147.143695 0 0 0 147.283877 896h854.8348a147.143695 147.143695 0 0 0 147.143695-147.143695v-556.5435zM901.019947 700.809384a34.033236 34.033236 0 0 0 0 68.066471h17.016618a34.033236 34.033236 0 0 0 0-68.066471H901.019947z m-270.263929 0a34.033236 34.033236 0 0 0 0 68.066471h18.017595a34.033236 34.033236 0 0 0 0-68.066471H630.756018z m135.131965 0a34.033236 34.033236 0 0 0 0 68.066471h17.016617a34.033236 34.033236 0 0 0 0-68.066471H765.887983zM67.205676 265.384164h1014.991202V748.856305a80.078201 80.078201 0 0 1-22.021505 55.053763L1058.173418 804.911046a80.078201 80.078201 0 0 1-56.054741 24.02346H147.283877a80.078201 80.078201 0 0 1-80.078201-80.078201v-484.473118z m1014.991202-67.065493H67.205676v-5.004888a80.078201 80.078201 0 0 1 80.078201-80.078201h854.8348a80.078201 80.078201 0 0 1 80.078201 80.078201V197.317693z"  horiz-adv-x="1149" />

    
    <glyph glyph-name="truck" unicode="&#58880;" d="M663.083997 284.18773699999997l0 1.462305 18.042935 0L681.126932 638.813476c0 0.917906 0.340761 1.75804 0.533143 2.64013l0 54.561663c0 10.278087-8.330736 18.60166-18.576077 18.60166L81.331353 714.61693c-10.247388 0-18.541285-8.323573-18.541285-18.59245l0-410.375461 18.541285 0 0-1.462305L663.083997 284.18671300000005zM888.697431 188.12077399999998c-10.588149 27.591405-33.256428 49.275263-61.547775 58.299801-9.339716 2.975774-19.265786 4.620227-29.588899 4.620227-10.283204 0-20.209274-1.645476-29.569456-4.620227-28.291346-9.025561-50.961672-30.708396-61.545728-58.299801L706.443527 188.12077399999998c-2.275833-5.962805-3.984754-12.183484-5.055133-18.62008-0.903579-5.313006-1.473561-10.754948-1.473561-16.302291 0-0.776689 0.105401-1.529843 0.105401-2.273786 1.248434-52.910047 44.445258-95.609545 97.540524-95.609545 53.095265 0 96.310509 42.699498 97.540524 95.609545 0.016373 0.743944 0.107447 1.497097 0.107447 2.273786 0 5.554506-0.567935 10.989285-1.457188 16.302291C892.662743 175.93729099999996 890.971218 182.15796899999998 888.697431 188.12077399999998zM838.237179 150.924617c-1.210571-21.544689-18.897396-38.712697-40.672328-38.712697-21.781072 0-39.451524 17.168008-40.676421 38.712697-0.037862 0.751107-0.215918 1.478677-0.210801 2.273786 0 5.779633 1.246387 11.266601 3.437286 16.302291 3.39533 7.779174 9.15859 14.190187 16.33299 18.62008 6.189979 3.745301 13.380752 6.064113 21.116947 6.064113 7.753591 0 14.945387-2.318812 21.116947-6.064113 7.206122-4.430916 12.986779-10.841929 16.367783-18.62008 2.189875-5.03569 3.435239-10.522658 3.435239-16.302291C838.485843 152.40227100000004 838.307787 151.67470100000003 838.237179 150.924617zM953.9639 277.341818L953.9639 416.29145c0 107.48092-70.746274 163.046447-73.776284 165.348885-3.247974 2.498914-7.199982 3.841491-11.273764 3.841491L719.650317 585.4818270000001c-5.500271 0-10.374278-2.440585-13.772678-6.265704l0-305.97367c0-3.175319-1.297552-6.040576-3.257184-8.211009l-1.527796 0c0-0.424672 0.105401-0.814552 0.124843-1.246387-2.119267-1.747807-4.754281-2.926656-7.706519-2.926656L338.931293 260.85840199999996c7.438413-4.099365 14.377452-8.962116 20.764929-14.43885 17.754363-15.184841 31.153534-35.344996 37.956474-58.299801 1.799996-6.030343 3.046383-12.261255 3.897773-18.62008 0.734734-5.354961 1.232061-10.773368 1.232061-16.302291 0-0.776689-0.094144-1.529843-0.12689-2.273786L675.263387 150.92359399999998c-0.016373 0.743944-0.103354 1.497097-0.103354 2.273786 0 5.528923 0.49528 10.954493 1.226944 16.302291 0.835018 6.359848 2.099824 12.589736 3.897773 18.62008 6.833639 22.961968 20.214391 43.11496 37.968753 58.306964l1.391696 0c-0.410346 0-0.821715 0.105401-1.264806 0.138146 8.771781 7.450692 18.576077 13.687744 29.196972 18.472723 7.955182 3.564175 16.302291 6.378268 25.038256 8.203846 8.042163 1.713015 16.405645 2.595105 24.945135 2.595105 8.56098 0 16.910135-0.88209 24.947182-2.595105 8.755408-1.825578 17.118889-4.63967 25.036209-8.203846 10.69355-4.810562 20.552082-11.099802 29.337165-18.61087 17.759479-15.192004 31.142278-35.344996 37.9708-58.306964 1.77646-6.030343 3.043313-12.261255 3.8814-18.62008 0.74906-5.354961 1.224898-10.764158 1.224898-16.302291 0-0.776689-0.089028-1.52268-0.119727-2.273786l20.319791 0c10.245342 0 18.554588 8.305153 18.554588 18.576077l0 95.538937C958.714088 269.765259 956.846554 274.05495900000005 953.9639 277.341818zM738.206952 439.45501L738.206952 548.284647l123.834376 0c12.352329-11.352559 46.172599-47.780213 53.362348-108.829638L738.206952 439.45501zM371.514385 188.12077399999998c-10.586103 27.591405-33.254382 49.275263-61.545728 58.299801-9.341762 2.975774-19.254529 4.620227-29.572526 4.620227-10.320043 0-20.247136-1.645476-29.570479-4.620227-28.293393-9.025561-50.966789-30.708396-61.547775-58.299801-2.26253-5.962805-3.968381-12.183484-5.0449-18.62008-0.912789-5.313006-1.480724-10.754948-1.480724-16.302291 0-0.776689 0.086981-1.529843 0.105401-2.273786 1.246387-52.910047 44.445258-95.609545 97.54257-95.609545 53.092195 0 96.310509 42.699498 97.538477 95.609545 0.016373 0.743944 0.105401 1.497097 0.105401 2.273786 0 5.554506-0.551562 10.989285-1.475608 16.302291C375.49914 175.93729099999996 373.791242 182.15796899999998 371.514385 188.12077399999998zM321.073576 150.924617c-1.210571-21.544689-18.895349-38.712697-40.676421-38.712697-21.7647 0-39.46585 17.168008-40.676421 38.712697l-0.002047 0c-0.032746 0.751107-0.232291 1.478677-0.223081 2.273786 0 5.779633 1.243317 11.266601 3.435239 16.302291 3.374864 7.779174 9.16166 14.190187 16.365736 18.62008 6.195096 3.745301 13.344936 6.064113 21.100574 6.064113 7.757684 0 14.926968-2.318812 21.120017-6.064113 7.189749-4.430916 12.95301-10.841929 16.35141-18.62008 2.173502-5.03569 3.416819-10.522658 3.416819-16.302291C321.284377 152.40227100000004 321.108369 151.67470100000003 321.073576 150.924617zM201.11139 246.42057499999999c6.382361 5.476735 13.305027 10.339486 20.74651 14.43885 2.771113 1.542122 5.655813 2.856048 8.53949 4.179183 0.426719 0.157589 0.800225 0.382717 1.208525 0.553609l-0.002047 0L100.493785 265.592216c0-0.181125-0.054235-0.38067-0.054235-0.553609l0-95.538937c0-10.270924 8.28878-18.576077 18.538215-18.576077l39.144532 0c0 0.743944-0.124843 1.497097-0.124843 2.273786 0 5.538133 0.5137 10.954493 1.226944 16.302291 0.851391 6.359848 2.102894 12.589736 3.914146 18.62008C169.954787 211.08274200000005 183.335539 231.23573399999998 201.11139 246.42057499999999z"  horiz-adv-x="1024" />

    
    <glyph glyph-name="chayue" unicode="&#58898;" d="M958.464-17.92l-107.52 107.52c29.696 38.912 47.616 87.552 47.616 140.288 0 128.512-104.448 232.448-232.448 232.448-128.512 0-232.448-104.448-232.448-232.448 0-128.512 104.448-232.448 232.448-232.448 52.736 0 101.376 17.92 140.288 47.616l107.52-107.52c6.144-6.144 14.336-9.216 22.016-9.216 8.192 0 15.872 3.072 22.016 9.216 12.8 12.288 12.8 32.256 0.512 44.544z m-462.336 247.808c0 93.696 76.288 169.984 169.984 169.984 93.696 0 169.984-76.288 169.984-169.984 0-93.696-76.288-169.984-169.984-169.984-93.696 0-169.984 76.288-169.984 169.984zM763.392 604.16c0 17.408-13.824 31.232-31.232 31.232H417.792c-17.408 0-31.232-13.824-31.232-31.232 0-17.408 13.824-31.232 31.232-31.232H732.16c16.896-0.512 31.232 13.824 31.232 31.232zM370.688 493.568H229.376c-17.408 0-31.232-13.824-31.232-31.232 0-17.408 13.824-31.232 31.232-31.232h141.312c17.408 0 31.232 13.824 31.232 31.232 0 17.408-13.824 31.232-31.232 31.232z m-31.744-204.8c17.408 0 31.232 13.824 31.232 31.232 0 17.408-13.824 31.232-31.232 31.232H229.376c-17.408 0-31.232-13.824-31.232-31.232 0-17.408 13.824-31.232 31.232-31.232h109.568z m0 0M370.688-8.704H161.28c-23.04 0-41.984 18.944-41.984 41.984v512h153.6c27.648 0 50.176 22.528 50.176 49.664V776.704h460.8c23.04 0 41.984-18.944 41.984-41.984v-225.28c0-17.408 13.824-31.232 31.232-31.232 17.408 0 31.232 13.824 31.232 31.232v225.28c0 57.856-47.104 104.96-104.96 104.96H271.36c-16.896 0-32.768-7.68-43.52-20.48l-158.72-188.416C61.44 620.032 56.32 606.208 56.32 592.384v-559.104c0-57.856 47.104-104.96 104.96-104.96h209.408c17.408 0 31.232 13.824 31.232 31.232 0 17.408-13.824 31.744-31.232 31.744z m-110.08 768v-151.04H133.632l126.976 151.04z m0 0"  horiz-adv-x="1024" />

    
    <glyph glyph-name="zhihuitiaodu" unicode="&#58945;" d="M98.866938-90.881399c0-20.320782 15.889829-36.223611 36.191611-36.223611 20.303782 0 36.192611 15.902829 36.192611 36.223611V626.528895c58.260374 15.903829 101.51491 68.91426 101.51491 132.526576C272.76607 834.154664 211.856724 896 135.94154 896S0 834.154664 0 759.055471c0-62.729326 42.371545-115.738757 99.748928-131.642586v-718.294284h-0.88199zM70.619241 759.055471c0 35.34062 29.129687 64.496307 64.439308 64.496307s64.439308-29.155687 64.439308-64.496307c0-35.33962-29.129687-64.496307-64.439308-64.496307s-64.439308 29.156687-64.439308 64.496307zM511.10451 896c20.303782 0 36.192611-15.902829 36.192611-36.223611v-371.075014c58.261374-15.902829 101.51491-68.91326 101.514909-132.526576 0-63.612317-43.253535-116.623747-101.514909-132.526576v-315.413612c0-20.319782-15.889829-36.223611-36.191611-36.223611-20.303782 0-36.192611 15.902829-36.192612 36.223611V223.648223c-57.378384 15.902829-99.748928 68.91426-99.748928 131.643585 0 62.729326 42.370545 115.738757 99.748928 131.642586V859.776389c0 20.319782 15.889829 36.223611 36.192612 36.223611z m66.206288-540.708192c0 36.223611-29.130687 64.496307-64.439307 64.496308-35.309621 0-64.440308-29.156687-64.440308-64.496308 0-35.34062 29.129687-64.496307 64.439308-64.496307s64.439308 29.155687 64.439307 64.496307z m346.033283-213.809703c58.259374-15.903829 101.51391-68.91426 100.631919-131.643586 0-75.982184-60.909346-136.943529-136.82453-136.943529S750.32694-65.259674 750.32694 9.838519c0 62.729326 42.371545 115.739757 100.631919 131.643586V859.776389c0 20.319782 15.889829 36.223611 36.192611 36.223611 20.302782 0 36.192611-15.902829 36.192611-36.223611v-718.294284z m-35.30962-196.139893c35.309621 0 64.439308 29.155687 64.439307 64.496307s-29.129687 64.496307-64.439307 64.496307-64.439308-29.155687-64.439308-64.496307c0-35.33962 29.129687-64.496307 64.439308-64.496307z"  horiz-adv-x="1024" />

    
    <glyph glyph-name="bianxie" unicode="&#59092;" d="M733.9858-128H73.908104c-40.180381 0-72.864422 32.684041-72.864422 72.864422V822.635822C1.043682 862.816203 33.727723 895.500244 73.908104 895.500244h660.077696c40.180381 0 72.864422-32.684041 72.864422-72.864422v-143.330014h-64.068717V822.635822c0 4.897609-3.998048 8.895656-8.895656 8.895657H73.908104c-4.897609 0-8.795705-3.998048-8.795706-8.895657v-877.7714c0-4.897609 3.998048-8.895656 8.795706-8.895657h660.077696c4.897609 0 8.895656 3.998048 8.895656 8.895657V77.999414h64.068717v-133.134992c0-40.180381-32.783992-72.864422-72.964373-72.864422zM384.55642 273.903758H243.425332c-17.691362 0-31.984383 14.293021-31.984383 31.984383s14.293021 31.984383 31.984383 31.984382h141.031137c17.691362 0 31.984383-14.293021 31.984382-31.984382 0.099951-17.59141-14.19307-31.984383-31.884431-31.984383z m90.355881-284.760957c-7.49634 0-14.792777 2.598731-20.589947 7.49634-9.295461 7.796193-13.39346 20.09019-10.594826 31.884431L493.803077 240.62001c1.099463 4.797657 3.298389 9.19551 6.396876 12.993655l324.941338 395.706784c5.097511 6.196974 12.393948 10.294973 20.390043 11.394436 87.357345 11.894192 166.018936-50.075549 177.613275-134.934114 1.199414-8.495852-1.099463-16.991703-6.296925-23.788384L701.301759 88.994046c-3.298389-4.297901-7.696242-7.696242-12.693802-9.895168l-200.901903-87.357346c-3.998048-1.69917-8.3959-2.598731-12.793753-2.598731z m79.561152 229.587897L520.7899 76.00039l134.734211 58.571401 301.75266 394.807223c-11.194534 40.280332-49.275939 68.766423-91.255441 68.766423L554.473453 218.730698zM913.198294 389.547291c-15.792289 0-29.485603 11.594339-31.684529 27.686482-3.398341 24.787897-16.192094 46.77716-36.082382 61.86979-19.890288 15.092631-44.478282 21.589458-69.36613 18.191117-17.59141-2.398829-33.683553 9.895168-36.082381 27.386628-2.398829 17.491459 9.895168 33.683553 27.386627 36.082382 41.7796 5.697218 83.259346-5.197462 116.742997-30.685017 33.583602-25.487555 55.17306-62.469497 60.870278-104.249098 2.398829-17.491459-9.895168-33.683553-27.386627-36.082381-1.499268-0.099951-2.998536-0.199902-4.397853-0.199903zM661.920988 97.489898c-15.792289 0-29.485603 11.594339-31.684529 27.686481-2.798633 20.489995-13.39346 38.581162-29.785456 51.075061-16.491947 12.493899-36.981942 17.791313-57.172084 14.992679-17.491459-2.398829-33.683553 9.895168-36.082382 27.386628-2.398829 17.491459 9.895168 33.683553 27.386628 36.082381 37.381747 5.197462 74.463641-4.597755 104.54895-27.486578 30.08531-22.788873 49.375891-55.97267 54.573353-93.354417 2.398829-17.491459-9.895168-33.683553-27.386627-36.082382-1.399317-0.199902-2.898585-0.299854-4.397853-0.299853zM551.77477 447.219131H243.425332c-17.691362 0-31.984383 14.293021-31.984383 31.984383s14.293021 31.984383 31.984383 31.984383H551.77477c17.691362 0 31.984383-14.293021 31.984383-31.984383s-14.293021-31.984383-31.984383-31.984383z m0 166.918497H243.425332c-17.691362 0-31.984383 14.293021-31.984383 31.984383s14.293021 31.984383 31.984383 31.984382H551.77477c17.691362 0 31.984383-14.293021 31.984383-31.984382 0-17.59141-14.293021-31.984383-31.984383-31.984383z"  horiz-adv-x="1024" />

    
    <glyph glyph-name="zhang" unicode="&#58982;" d="M32-128h960v102.4H32z m888.96 375.68h-232.96a140.8 140.8 0 0 0-38.4 81.28c-10.24 123.52 128 183.04 128 334.72C778.88 792.32 676.48 896 512 896S245.12 792.32 245.12 663.04c0-151.68 138.88-211.2 128-334.72a140.8 140.8 0 0 0-38.4-81.28H103.04A69.76 69.76 0 0 1 32 179.2v-136.96h960V179.2a69.76 69.76 0 0 1-71.04 68.48z"  horiz-adv-x="1024" />

    
    <glyph glyph-name="juyouduiqi" unicode="&#59110;" d="M870.4 128H153.6a51.2 51.2 0 0 1 0-102.4h716.8a51.2 51.2 0 0 1 0 102.4z m0 614.4H153.6a51.2 51.2 0 0 1 0-102.4h716.8a51.2 51.2 0 0 1 0 102.4z m0-307.2H460.8a51.2 51.2 0 0 1 0-102.4h409.6a51.2 51.2 0 0 1 0 102.4z"  horiz-adv-x="1024" />

    
    <glyph glyph-name="juzuoduiqi" unicode="&#59111;" d="M153.6 128h716.8a51.2 51.2 0 0 0 0-102.4H153.6a51.2 51.2 0 0 0 0 102.4zM153.6 742.4h716.8a51.2 51.2 0 0 0 0-102.4H153.6a51.2 51.2 0 0 0 0 102.4z m0-307.2h409.6a51.2 51.2 0 0 0 0-102.4H153.6a51.2 51.2 0 0 0 0 102.4z"  horiz-adv-x="1024" />

    
    <glyph glyph-name="juzhongduiqi" unicode="&#59112;" d="M870.4 128H153.6a51.2 51.2 0 0 1 0-102.4h716.8a51.2 51.2 0 0 1 0 102.4z m0 614.4H153.6a51.2 51.2 0 0 1 0-102.4h716.8a51.2 51.2 0 0 1 0 102.4z m-153.6-307.2H307.2a51.2 51.2 0 0 1 0-102.4h409.6a51.2 51.2 0 0 1 0 102.4z"  horiz-adv-x="1024" />

    
    <glyph glyph-name="xieti" unicode="&#59119;" d="M512 678.89573a33.048659 33.048659 0 0 1-7.118173 33.048659 92.027805 92.027805 0 0 1-47.285005 15.253228 17.286991 17.286991 0 0 0-15.761668 16.270109 26.438928 26.438928 0 0 0 0 7.118173v9.660377q33.5571-3.559086 66.097319-5.084409t60.504468 0h56.945383q33.5571 0 63.555114 5.084409a94.061569 94.061569 0 0 0 0-16.77855 14.744786 14.744786 0 0 0-15.761668-16.77855 107.789474 107.789474 0 0 1-50.844092-15.761669 53.894737 53.894737 0 0 1-18.812314-33.5571L498.780536 104.357498a31.014896 31.014896 0 0 1 7.626614-32.540219 112.365442 112.365442 0 0 1 50.844091-15.761668 16.270109 16.270109 0 0 0 14.744787-16.77855 96.095333 96.095333 0 0 0 0-17.795432q-33.5571 3.559086-68.131083 5.084409H384.889772q-33.048659 0-63.046674-5.084409a96.095333 96.095333 0 0 0 0 17.795432 14.236346 14.236346 0 0 0 13.219464 15.761668 131.686197 131.686197 0 0 1 50.844091 16.270109 50.844091 50.844091 0 0 1 20.337637 33.04866z"  horiz-adv-x="1024" />

    
    <glyph glyph-name="fuzhi" unicode="&#59378;" d="M192.853 128h256v-64.853h-256zM768 0c0-35.84-29.013-64.853-64.853-64.853H128c-35.84 0-63.147 29.013-63.147 64.853V575.147C64.853 610.987 93.867 640 128 640h576.853c35.84 0 64.854-29.013 64.854-64.853V0z m-63.147 703.147H128c-69.973 0-128-58.027-128-128V0c0-71.68 58.027-128 128-128h576.853c69.974 0 128 58.027 128 128V575.147c0 69.973-58.026 128-128 128zM192.853 512H640v-64.853H192.853z m0-128H640v-64.853H192.853z m0-128H640v-64.853H192.853zM896 896H320.853c-69.973 0-128-58.027-128-128H256c0 35.84 29.013 64.853 63.147 64.853h575.146c35.84 0 64.854-29.013 64.854-64.853v-575.147c0-35.84-29.014-64.853-64.854-64.853v-64.853c69.974 0 128 58.026 128 128V768C1024 837.973 965.973 896 896 896z"  horiz-adv-x="1024" />

    
    <glyph glyph-name="Underline" unicode="&#58920;" d="M244.80391196-34.263368050000054v53.30830343l534.39217608 4.84906561v-53.29783023L244.80391196-34.263368050000054zM753.79871378 374.58723035q0-273.50615719-248.10878291-273.50615797-237.74037025 0-237.74037027 263.92323078V756.69989156h83.26149514v-387.93572969q0-193.57512211 162.33373288-193.5751221 156.94006385 0 156.94006386 187.3331282V756.75225695H753.79871378z"  horiz-adv-x="1024" />

    
    <glyph glyph-name="shebeiweihu" unicode="&#58955;" d="M988.16 465.92H880.64c-20.48 0-40.96 15.36-46.08 30.72l-15.36 35.84c-5.12 15.36 0 40.96 15.36 56.32l76.8 76.8c15.36 15.36 15.36 35.84 0 46.08l-66.56 66.56c-15.36 15.36-35.84 15.36-46.08 0l-81.92-76.8c-15.36-15.36-35.84-15.36-56.32-10.24l-35.84 15.36c-20.48 5.12-30.72 25.6-30.72 46.08V860.16C593.92 880.64 578.56 896 558.08 896h-92.16c-20.48 0-35.84-15.36-35.84-35.84v-107.52c0-20.48-15.36-40.96-30.72-46.08l-35.84-10.24c-15.36-10.24-40.96-5.12-56.32 5.12l-76.8 76.8c-10.24 15.36-30.72 15.36-46.08 0l-66.56-66.56c-15.36-15.36-15.36-35.84 0-46.08l71.68-76.8c15.36-15.36 20.48-40.96 10.24-56.32l-15.36-35.84c-5.12-15.36-25.6-30.72-46.08-30.72H35.84C15.36 465.92 0 450.56 0 430.08v-97.28c0-20.48 15.36-35.84 35.84-35.84h107.52c20.48 0 40.96-15.36 46.08-30.72l15.36-35.84c0-15.36 0-40.96-15.36-51.2l-71.68-71.68c-15.36-15.36-15.36-35.84 0-46.08l66.56-66.56c15.36-15.36 35.84-15.36 46.08 0l76.8 66.56c10.24 15.36 35.84 15.36 51.2 10.24l35.84-15.36c20.48-5.12 30.72-25.6 30.72-46.08v-102.4c0-20.48 15.36-35.84 35.84-35.84h97.28c20.48 0 35.84 15.36 35.84 35.84v102.4c0 20.48 15.36 40.96 30.72 46.08l25.6 10.24-51.2 51.2c-30.72-10.24-56.32-15.36-92.16-15.36-76.8 0-143.36 30.72-199.68 81.92C256 235.52 225.28 307.2 225.28 384S256 527.36 307.2 583.68c51.2 51.2 122.88 81.92 199.68 81.92s143.36-30.72 199.68-81.92c51.2-51.2 81.92-122.88 81.92-199.68 0-30.72-5.12-61.44-15.36-87.04l51.2-51.2 10.24 25.6c5.12 20.48 25.6 30.72 46.08 30.72h107.52c20.48 0 35.84 15.36 35.84 35.84v92.16c0 20.48-15.36 35.84-35.84 35.84zM721.92 271.36c-10.24 10.24-15.36 20.48-10.24 35.84 30.72 92.16 5.12 184.32-76.8 240.64-51.2 35.84-107.52 46.08-168.96 25.6 20.48-25.6 51.2-51.2 71.68-71.68 46.08-46.08 46.08-107.52 5.12-148.48-46.08-40.96-102.4-40.96-148.48 5.12-25.6 25.6-46.08 51.2-71.68 71.68-5.12 0-5.12-5.12-10.24-5.12-10.24-76.8 5.12-143.36 61.44-194.56 61.44-56.32 128-71.68 209.92-46.08 20.48 5.12 30.72 5.12 46.08-10.24 56.32-61.44 163.84-158.72 220.16-215.04 30.72-25.6 61.44-30.72 92.16-5.12 35.84 30.72 35.84 71.68 5.12 102.4-61.44 56.32-163.84 158.72-225.28 215.04zM890.88-25.6c-20.48 0-30.72 15.36-30.72 30.72 0 20.48 15.36 30.72 30.72 30.72 20.48 0 30.72-15.36 30.72-30.72 5.12-15.36-10.24-30.72-30.72-30.72z m0 0"  horiz-adv-x="1024" />

    
    <glyph glyph-name="yichang" unicode="&#58899;" d="M508.830725 895.999688a373.993453 373.993453 0 0 1-262.338159-107.03886 362.015681 362.015681 0 0 1-108.548559-258.270708v-498.936586h742.197649V530.715074a362.352556 362.352556 0 0 1-108.798095 258.270708A374.305374 374.305374 0 0 1 508.830725 895.999688z m-30.256351-744.60568l-9.083144 241.72641H286.867639l240.191758 303.187353 20.437073-195.399882 173.365773-6.126131-242.350253-343.38775zM0-70.232204a55.871315 55.871315 0 0 0 55.871315 55.871315h910.360577a55.871315 55.871315 0 0 0 55.871316-55.871315 55.871315 55.871315 0 0 0-55.871316-55.871315H55.871315A55.871315 55.871315 0 0 0 0-70.232204z m0-55.871315"  horiz-adv-x="1024" />

    
    <glyph glyph-name="huoche" unicode="&#58882;" d="M857.681 833.096H166.318c-23.771 0-43.199-18.858-43.199-41.883V390.82l37.893 242.836s59.864 73.68 181.261 73.68h338.709c121.396 0 181.262-73.68 181.262-73.68l38.638-247.529V791.213c-0.002 23.024-19.431 41.883-43.201 41.883z m-349.102-144.18c1.096 0 2.193 0 3.377-0.022 1.185 0.022 2.236 0.022 3.465 0.022h-6.842z m236.082-40.612c-45.041 18.223-152.973 19.034-232.617 19.626-79.732-0.592-187.708-1.403-232.75-19.626-45.655-18.464-66.487-15.92-75.96-62.08l-43.945-255.818v-289.677h59.032v-55.304c0-67.363 97.757-67.363 97.757 0v55.304h391.643v-55.304c0-67.363 97.802-67.363 97.802 0v55.304h58.987V330.407l-43.945 255.818c-9.516 46.159-30.305 43.637-76.004 62.079zM221.49 338.871l26.666 185.538c3.64 22.564 11.534 37.388 41.751 37.388h444.184c30.086 0 38.024-14.824 41.665-37.388l26.665-185.538c2.456-17.806-2.807-35.437-28.156-35.437H249.603c-25.306 0-30.613 17.631-28.113 35.437z m107.714-177.776c0-10.635-8.859-19.274-19.824-19.274h-80.215c-11.008 0-19.867 8.64-19.867 19.274v33.003c0 10.636 8.859 19.253 19.867 19.253h80.215c10.964 0 19.824-8.617 19.824-19.253v-33.003z m485.409 0c0-10.635-8.858-19.274-19.822-19.274h-80.26c-11.008 0-19.867 8.64-19.867 19.274v33.003c0 10.636 8.859 19.253 19.867 19.253h80.26c10.964 0 19.822-8.617 19.822-19.253v-33.003z"  horiz-adv-x="1024" />

    
    <glyph glyph-name="caozuoguanli" unicode="&#59034;" d="M618.667 334.933v44.8c-36.267 81.067-72.534 6.4-72.534 6.4-51.2 66.134-87.466 2.134-87.466 2.134-49.067 61.866-89.6 4.266-89.6 4.266v179.2c-32 59.734-70.4 0-70.4 0v-281.6s-12.8 36.267-49.067 53.334c-64 29.866-55.467-40.534-55.467-40.534l140.8-185.6H512v21.334c0 83.2 42.667 153.6 106.667 196.266zM529.067 10.667H128v768h533.333V608H832v-234.667c14.933 0 27.733-23.466 42.667-25.6V650.667L704 821.333H85.333V-32H569.6c-14.933 12.8-29.867 27.733-40.533 42.667zM746.667 330.667c-106.667 0-192-85.334-192-192s85.333-192 192-192 192 85.333 192 192-85.334 192-192 192z m87.466-243.2c-10.666-19.2-10.666-40.534-2.133-59.734-10.667-8.533-21.333-14.933-34.133-19.2C787.2 25.6 768 36.267 744.533 36.267S704 25.6 691.2 8.533c-12.8 4.267-23.467 10.667-34.133 19.2 8.533 19.2 8.533 40.534-2.134 59.734-10.666 19.2-29.866 29.866-51.2 32 0 6.4-2.133 12.8-2.133 19.2s0 12.8 2.133 19.2c19.2 2.133 38.4 12.8 51.2 32 10.667 19.2 10.667 40.533 2.134 59.733 10.666 8.533 21.333 14.933 34.133 19.2 10.667-17.067 29.867-27.733 53.333-27.733s40.534 10.666 53.334 27.733c12.8-4.267 23.466-10.667 34.133-19.2-8.533-19.2-8.533-40.533 2.133-59.733 10.667-19.2 29.867-29.867 51.2-32 0-6.4 2.134-12.8 2.134-19.2s0-12.8-2.134-19.2c-21.333-2.134-40.533-12.8-51.2-32zM746.667 189.867c-27.734 0-51.2-23.467-51.2-51.2s23.466-51.2 51.2-51.2 51.2 23.466 51.2 51.2-23.467 51.2-51.2 51.2zM405.333 435.2c42.667 25.6 70.4 74.667 70.4 130.133 0 83.2-64 149.334-142.933 149.334s-142.933-66.134-142.933-149.334c0-55.466 29.866-102.4 72.533-130.133v46.933c-21.333 21.334-36.267 51.2-36.267 83.2 0 61.867 46.934 110.934 106.667 110.934S439.467 627.2 439.467 565.333c0-32-12.8-61.866-34.134-83.2V435.2z"  horiz-adv-x="1024" />

    


  </font>
</defs>
</svg>
